<?xml version="1.0" encoding="UTF-8" standalone="no"?>
<!-- Created with Inkscape (http://www.inkscape.org/) -->
<svg
   xmlns:svg="http://www.w3.org/2000/svg"
   xmlns="http://www.w3.org/2000/svg"
   version="1.0"
   viewBox="0 0 596.89532 596.90625"
   id="svg2440">
  <defs
     id="defs2443" />
  <g
     transform="translate(-25.235114,2.1452922)"
     id="g3229">
    <path
       d="M 601.04761,-1.6452922 L 323.73511,-1.6140422 C 47.049614,-1.5919102 46.426314,-1.6019562 41.891414,0.44845779 C 35.790014,3.2070718 31.034514,7.9014668 28.141414,14.010958 L 25.766414,19.073458 L 25.735114,296.35471 L 25.735114,573.66721 L 28.360114,578.91721 C 31.407314,585.03205 37.406214,590.54661 43.297614,592.63596 C 46.899214,593.9133 84.284314,594.12939 323.76641,594.19846 L 600.11011,594.26096 L 606.32881,591.13596 C 612.96339,587.82065 616.243,584.35868 619.54761,577.07346 C 621.58957,572.57187 621.58803,571.66665 621.61011,296.76096 C 621.63469,-8.9792302 622.21321,16.075072 615.01636,7.6672078 C 613.10094,5.4294748 609.18288,2.4174908 606.29761,0.97970779 L 601.04761,-1.6452922 z"
       id="path2453"
       style="fill:#ffffff;fill-opacity:1;fill-rule:evenodd;stroke:#ffffff;stroke-width:1px;stroke-linecap:butt;stroke-linejoin:miter;stroke-opacity:1" />
    <path
       d="M 46.486124,589.40706 C 40.653134,587.33837 34.706024,581.8798 31.689044,575.82551 L 29.100774,570.63153 L 29.110544,296.07788 L 29.120314,21.524217 L 31.488084,16.524217 C 34.352614,10.475215 39.059894,5.8340569 45.100774,3.1027559 C 49.590814,1.0726429 50.208394,1.0680909 324.15444,1.0461779 L 598.70809,1.0242159 L 603.90207,3.6124819 C 606.75875,5.0360289 610.64768,8.0134939 612.54413,10.229071 C 619.66969,18.553688 619.10316,-6.2607031 619.07882,296.45236 C 619.05693,568.63621 619.05026,569.53876 617.02851,573.99578 C 613.7566,581.20886 610.52385,584.65671 603.95502,587.93919 L 597.78134,591.02422 L 324.19106,590.94527 C 87.080074,590.87685 50.052144,590.67175 46.486124,589.40706 z M 157.71113,530.79693 C 159.87351,529.29693 162.42055,526.75291 163.37121,525.14356 C 164.73544,522.8341 199.10078,433.57504 199.10078,432.3411 C 199.10078,432.16682 192.85755,432.02422 185.22693,432.02422 L 171.35307,432.02422 L 163.10078,454.02422 C 158.56202,466.12422 154.73456,476.02422 154.59533,476.02422 C 154.45609,476.02422 150.01796,468.43261 144.73282,459.15397 C 131.01566,435.07201 128.23713,432.80183 111.73499,432.19335 C 105.90024,431.97821 102.01867,432.2097 102.23499,432.75992 C 102.43617,433.27161 111.71327,449.65976 122.85077,469.17804 C 133.98828,488.69632 143.10078,505.14782 143.10078,505.73692 C 143.10078,506.32603 140.85078,512.75531 138.10078,520.02422 C 135.35078,527.29313 133.10078,533.45774 133.10078,533.72335 C 133.10078,533.98895 137.7535,534.05281 143.44016,533.86524 C 152.77593,533.55732 154.16116,533.25949 157.71113,530.79693 z M 215.84115,531.90786 C 221.41046,529.2118 223.78724,525.94165 227.59261,515.73937 L 230.65679,507.52422 L 254.54886,507.52422 L 278.44092,507.52422 L 283.45322,520.77422 L 288.46552,534.02422 L 301.28315,534.02422 C 308.33285,534.02422 314.10078,533.62707 314.10078,533.14167 C 314.10078,531.42298 280.23522,442.87835 278.65612,440.46834 C 277.77397,439.122 275.1849,436.7838 272.90265,435.27234 C 268.7633,432.53098 268.70889,432.52422 250.79999,432.52422 L 232.84689,432.52422 L 213.6242,483.27422 L 194.40151,534.02422 L 202.93542,534.02422 C 209.58192,534.02422 212.43623,533.55615 215.84115,531.90786 z M 238.15196,488.27422 C 238.18011,487.86172 241.46479,478.97422 245.45125,468.52422 C 251.28006,453.24472 253.06438,449.52422 254.56347,449.52422 C 256.05977,449.52422 257.77793,453.07582 263.27135,467.52422 C 267.03542,477.42422 270.36722,486.31172 270.67534,487.27422 C 271.19355,488.89301 269.99338,489.02422 254.66817,489.02422 C 245.5561,489.02422 238.12381,488.68672 238.15196,488.27422 z M 352.10078,516.02422 L 352.10078,498.02422 L 360.87298,498.02422 L 369.64518,498.02422 L 378.60077,516.02422 L 387.55636,534.02422 L 401.32857,534.02422 C 408.90328,534.02422 415.10077,533.72687 415.10077,533.36344 C 415.10077,533.00001 410.82577,524.41799 405.60077,514.29228 C 400.37577,504.16657 396.10077,495.57564 396.10077,495.20134 C 396.10077,494.82704 398.15959,493.42859 400.67592,492.09368 C 406.4213,489.04576 411.53103,483.14454 413.54649,477.22949 C 415.56432,471.30749 415.5536,458.70948 413.52567,452.75783 C 411.56158,446.99355 405.16564,439.6096 399.72898,436.8299 C 391.28432,432.51224 387.08859,432.04856 356.35078,432.03609 L 327.10078,432.02422 L 327.10078,483.02422 L 327.10078,534.02422 L 339.60078,534.02422 L 352.10078,534.02422 L 352.10078,516.02422 z M 352.10078,465.02422 L 352.10078,450.02422 L 365.35078,450.08066 C 380.70126,450.14605 384.61712,451.16425 387.81614,455.9221 C 390.8514,460.43639 390.97632,469.07588 388.07514,473.8344 C 384.94484,478.9687 381.11786,480.02422 365.6329,480.02422 L 352.10078,480.02422 L 352.10078,465.02422 z M 454.56598,520.51821 L 459.53119,507.02422 L 483.23835,507.02422 L 506.94552,507.02422 L 510.57217,516.3841 C 516.0841,530.60959 520.72575,534.02422 534.55111,534.02422 C 539.25342,534.02422 543.10077,533.77911 543.10077,533.47953 C 543.10077,533.0876 515.95269,460.99889 505.36419,433.27422 C 505.00822,432.34216 500.65356,432.02981 488.24378,432.04618 C 474.18197,432.06474 470.9804,432.35537 467.60077,433.92008 C 459.28,437.77247 460.32204,435.44703 425.54462,527.77422 L 423.1904,534.02422 L 436.39558,534.01821 L 449.60077,534.01219 L 454.56598,520.51821 z M 467.10077,488.20959 C 467.10077,487.21354 479.94076,453.22039 481.24097,450.77422 C 481.75256,449.81172 482.78216,449.02422 483.52896,449.02422 C 484.27577,449.02422 485.20595,449.81172 485.59604,450.77422 C 485.98612,451.73672 489.13825,459.94922 492.60077,469.02422 C 496.06329,478.09922 499.21542,486.31172 499.6055,487.27422 C 500.26404,488.89911 499.12746,489.02422 483.70776,489.02422 C 474.57391,489.02422 467.10077,488.65764 467.10077,488.20959 z M 496.10077,399.00146 C 512.41131,396.91153 522.05115,391.40077 530.83982,379.14237 C 537.44922,369.9236 540.28242,361.39627 540.34817,350.52422 C 540.4181,338.96155 538.22951,332.18944 526.61312,308.02422 C 514.31403,282.43878 513.23898,279.91306 512.08495,273.89171 C 510.25348,264.33568 514.62479,258.09523 524.60077,256.02422 C 530.91055,254.71432 535.72384,251.17059 537.73674,246.35303 C 539.42132,242.32128 539.52779,231.85124 537.90077,230.22422 C 537.06582,229.38927 531.75355,229.02422 520.43828,229.02422 C 501.49671,229.02422 495.9962,230.42027 489.92823,236.76779 C 482.56635,244.46883 482.00833,246.99559 481.14821,276.52422 C 480.40182,302.14888 479.6869,306.6365 475.84328,309.82396 C 474.98126,310.53882 473.00837,311.21382 471.45907,311.32396 C 468.69869,311.5202 468.62696,311.39021 467.8837,304.8444 C 466.93419,296.48228 464.08484,288.9004 459.6032,282.81075 C 445.13078,263.1456 417.18978,259.19735 397.57275,274.04543 C 393.95491,276.78376 390.73573,279.02422 390.41901,279.02422 C 390.1023,279.02422 388.04415,277.39891 385.84535,275.41243 C 383.64655,273.42594 378.88743,270.41544 375.26954,268.72242 C 360.4951,261.80862 340.16292,264.831 329.05862,275.59167 C 327.11043,277.47957 325.22176,279.02422 324.86158,279.02422 C 324.50139,279.02422 321.24664,276.78376 317.6288,274.04543 C 301.02109,261.4751 277.12911,262.06599 262.3562,275.41243 C 260.1574,277.39891 258.06906,279.02422 257.71545,279.02422 C 257.36184,279.02422 254.64491,277.0469 251.67783,274.63018 C 244.66265,268.91624 236.61849,265.88741 226.79011,265.25935 C 203.61503,263.77839 184.45636,279.45648 180.87686,302.83147 C 179.39949,312.47909 179.47498,312.33386 176.34146,311.55616 C 171.93435,310.46238 169.27507,307.21871 168.21217,301.64042 C 167.676,298.82651 166.94592,286.47326 166.58977,274.18875 C 165.81101,247.32784 165.02217,243.85037 158.1484,236.9766 C 151.37111,230.19932 146.78605,229.02422 127.11928,229.02422 C 116.30488,229.02422 111.13166,229.39333 110.30077,230.22422 C 108.77798,231.74701 108.72163,243.41773 110.22296,246.33996 C 112.57948,250.92677 116.63101,254.12221 122.07299,255.68606 C 133.18205,258.87845 136.10078,261.97199 136.10078,270.554 C 136.10078,276.27888 133.48537,282.94895 121.42984,307.96926 C 111.26347,329.06878 108.49234,336.70527 107.52151,346.29692 C 106.32211,358.14687 110.5199,371.14308 118.98615,381.79101 C 126.86336,391.69809 137.02799,397.10209 151.25706,398.94776 C 160.39941,400.13362 486.86823,400.18447 496.10077,399.00146 z M 218.60078,334.13339 C 201.31912,329.63397 193.28552,311.47943 201.7192,295.98397 C 206.41216,287.36145 214.02097,283.02422 224.45447,283.02422 C 243.31941,283.02422 255.70853,302.4401 247.74947,319.5315 C 245.23333,324.9347 239.64633,330.4805 234.59135,332.59261 C 230.42936,334.3316 222.35157,335.10994 218.60078,334.13339 z M 283.90658,333.67379 C 281.32478,332.95216 278.39978,331.7458 277.40658,330.99299 C 268.80931,324.4765 265.12549,317.72892 265.11055,308.47056 C 265.09375,298.06063 270.81441,289.35272 280.60078,284.89156 C 285.46431,282.6745 295.75382,282.43458 300.52246,284.42705 C 305.1033,286.34105 311.84758,292.60759 314.11951,297.06093 C 324.10752,316.63905 305.15058,339.61159 283.90658,333.67379 z M 351.60078,334.08915 C 339.86679,331.23253 331.70668,320.69396 331.80561,308.52422 C 331.86327,301.43049 333.61889,296.78159 338.21841,291.54303 C 347.49309,280.97975 365.22915,280.16509 375.44402,289.83317 C 382.9385,296.92647 385.48633,310.46486 381.05102,319.627 C 375.77705,330.52156 362.90705,336.84165 351.60078,334.08915 z M 418.60077,334.13339 C 401.31911,329.63397 393.28551,311.47943 401.71919,295.98397 C 406.41215,287.36145 414.02096,283.02422 424.45446,283.02422 C 443.3194,283.02422 455.70852,302.4401 447.74946,319.5315 C 445.23332,324.9347 439.64632,330.4805 434.59134,332.59261 C 430.42935,334.3316 422.35156,335.10994 418.60077,334.13339 z M 265.63954,239.93545 C 248.7158,221.20288 234.89868,182.45765 233.39757,149.52423 C 232.29546,125.34457 239.26272,94.576518 251.23469,70.7539 C 256.13019,61.012496 261.69586,52.654514 265.99578,48.587126 C 267.70353,46.971726 269.10078,45.284226 269.10078,44.837126 C 269.10078,44.390026 257.76973,44.024217 243.92067,44.024217 L 218.74055,44.024217 L 214.67067,48.396987 C 198.16739,66.128445 184.12411,95.168668 179.44759,121.23507 C 177.23301,133.57892 177.25545,155.57998 179.49481,167.52422 C 184.37247,193.54067 197.61585,221.39087 213.23743,238.48336 L 218.30147,244.02422 L 243.81748,244.02422 L 269.3335,244.02422 L 265.63954,239.93545 z M 361.36574,239.27422 C 343.9982,218.23621 331.79957,184.11821 329.54132,150.26538 C 327.42186,118.49328 342.56493,70.610336 361.42409,49.450829 L 366.26075,44.024217 L 340.78111,44.024217 L 315.30147,44.024217 L 310.23816,49.564275 C 303.26175,57.197588 293.84851,71.525728 288.6553,82.416139 C 266.46463,128.95105 270.01959,179.67714 298.54437,223.52422 C 301.4068,227.92422 306.09439,234.33672 308.96124,237.77422 L 314.17369,244.02422 L 339.73035,244.02422 L 365.28702,244.02422 L 361.36574,239.27422 z M 457.35985,238.52555 C 445.40027,225.10719 435.17247,201.44843 428.86747,172.61745 C 425.67558,158.02183 425.71952,130.13438 428.95823,115.02422 C 434.29329,90.133548 444.32917,66.471159 455.57226,52.274216 L 462.10575,44.024217 L 436.90422,44.024217 L 411.70269,44.024217 L 406.82772,49.216711 C 396.22512,60.509895 383.5004,82.729921 377.73184,100.02422 C 370.71961,121.04707 368.68546,147.27764 372.45853,168.02422 C 376.95926,192.77194 389.37489,219.03961 405.66276,238.27422 L 410.53186,244.02422 L 436.3963,244.02422 L 462.26074,244.02422 L 457.35985,238.52555 z"
       id="path2451"
       style="fill:#091f65" />
  </g>
  <g
     transform="translate(631.33415,80.987283)"
     id="layer1" />
</svg>
