<svg id="Ebene_1" data-name="Ebene 1" xmlns="http://www.w3.org/2000/svg" viewBox="0 0 380 92">
  <defs>
    <style>.aareon-svg-1,.aareon-svg-2{fill:#002c67;}.aareon-svg-2{fill-rule:evenodd;}</style>
  </defs>
  <path class="aareon-svg-1"
    d="M88.82,39.1a43,43,0,0,1,.49,6.56A43.68,43.68,0,0,1,61.56,86.33L88.82,39.1Z" />
  <path class="aareon-svg-1"
    d="M21.89,33.26a30.28,30.28,0,0,0-6.25.44,14.91,14.91,0,0,0-3.3,1,13.44,13.44,0,0,0-5.87,5.24l-2,3.49L2,47.61c0-.65,0-1.3,0-2H2A43.67,43.67,0,0,1,87.53,33.25H80.74a29.38,29.38,0,0,0-6.24.44,14.91,14.91,0,0,0-3.3,1,13.44,13.44,0,0,0-5.87,5.24l-2,3.48-26,45.11a44.49,44.49,0,0,1-5.53-1.46l33.47-58a6.47,6.47,0,0,1-3.48,1.27c-2,0-2.68-1.62-1.53-3.61a7.47,7.47,0,0,1,5.69-3.61,1.86,1.86,0,0,1,2,1.27l3.75-6.5H60.2a29.82,29.82,0,0,0-6.24.45,14,14,0,0,0-3.31,1,13.52,13.52,0,0,0-5.87,5.23l-2,3.49-28,48.47a43.88,43.88,0,0,1-3.87-4.42L33.35,33.26Z" />
  <path class="aareon-svg-1"
    d="M153,47.37V30.52H138.48c-5.83,0-8.06,3.95-8.18,9.39v7.46Zm-29.68-7.64c0-8.52,5.79-14.11,15.27-14.11h21.35V64.46H153V52H130.3V64.46h-7V39.73Z" />
  <path class="aareon-svg-1"
    d="M359.51,35.33c9.4,0,15.16,5.71,15.22,14.1v15h-7v-15c-.17-5.34-2.41-9.29-8.15-9.29h-12.8V64.46H339.6V40.14H334V35.33Z" />
  <path class="aareon-svg-1"
    d="M184.48,64.46c-7.77,0-14.52-4.64-14.52-14.92,0-8.49,5.78-14.21,15.26-14.21h17.85V59.76h5.48v4.7Zm11.62-4.82V40.17H185.15c-6,0-8.17,4.16-8.19,9.8,0,6,2.68,9.67,8.74,9.67Z" />
  <path class="aareon-svg-1"
    d="M298.12,48.8V50c0,6.67,2.82,9.61,10.38,9.61h3c7.57,0,10.39-2.93,10.39-9.6V48.8c0-7.39-3.65-9.6-10.39-9.6h-3c-6.74,0-10.38,2.21-10.38,9.6Zm11.75,15.66h-2.49c-10.05,0-16.54-4.16-16.54-14.77v-.6c.07-10.44,6.53-14.72,16.53-14.72h5c10,0,16.46,4.28,16.54,14.72v.6c0,10.61-6.49,14.77-16.54,14.77Z" />
  <path class="aareon-svg-2"
    d="M264.58,40.1c-8.31,0-9.11,5.09-9.45,7.21h21.38c-.34-2.12-1.14-7.21-9.45-7.21h-2.48ZM255.13,52c.53,4.83,3.26,7.81,8.6,7.81h12.8v4.7h-14c-7.75,0-14.47-4.65-14.47-14.9,0-8.34,5.44-14.23,16.31-14.23h2.92c10.2,0,14.16,4.73,15.42,11.86a30.43,30.43,0,0,1,.24,4.76Z" />
  <path class="aareon-svg-1"
    d="M243.93,35.56H232.38c-9.39,0-15.15,5.51-15.21,13.9v15h7V49.55c.16-5.33,2.4-9.19,8.15-9.19h11.62v-4.8Z" />
</svg>