<?xml version="1.0" encoding="utf-8"?>
<!-- Generator: Adobe Illustrator 16.0.0, SVG Export Plug-In . SVG Version: 6.00 Build 0)  -->
<svg version="1.1" id="Layer_1" xmlns="http://www.w3.org/2000/svg"
	xmlns:xlink="http://www.w3.org/1999/xlink" x="0px" y="0px"
	width="32px" height="32px" viewBox="0 0 32 32" enable-background="new 0 0 32 32"
	xml:space="preserve">
<circle fill="#DB7E8E" cx="16" cy="16" r="16"/>
<g>
	<path fill="#E6E6E6" d="M6.261,8.758c0.25-0.359,0.582-0.668,0.996-0.926S8.132,7.36,8.64,7.188s1.055-0.305,1.641-0.398
		s1.16-0.164,1.723-0.211s1.109-0.078,1.641-0.094s1-0.023,1.406-0.023c0.031,0,0.102,0.004,0.211,0.012s0.227,0.016,0.352,0.023
		s0.238,0.012,0.34,0.012s0.176,0,0.223,0c0.063,0.344,0.027,0.582-0.105,0.715s-0.305,0.211-0.516,0.234s-0.434,0.016-0.668-0.023
		s-0.406-0.043-0.516-0.012c-0.156,0.016-0.402,0.059-0.738,0.129S12.925,7.7,12.519,7.786s-0.84,0.18-1.301,0.281
		S10.32,8.262,9.906,8.348S9.121,8.516,8.792,8.594s-0.57,0.133-0.727,0.164C7.816,8.852,7.675,8.969,7.644,9.11
		S7.597,9.415,7.597,9.602c0,0.328,0.02,0.695,0.059,1.102s0.086,0.809,0.141,1.207S7.906,12.672,7.96,13s0.09,0.57,0.105,0.727
		c0.063,0.016,0.18,0.023,0.352,0.023s0.289,0,0.352,0c0.359,0,0.711-0.031,1.055-0.094s0.688-0.133,1.031-0.211
		s0.695-0.145,1.055-0.199s0.727-0.082,1.102-0.082v0.867c-0.156,0-0.375,0.012-0.656,0.035s-0.59,0.066-0.926,0.129
		s-0.676,0.129-1.02,0.199s-0.656,0.145-0.938,0.223s-0.512,0.156-0.691,0.234s-0.27,0.156-0.27,0.234v4.875
		c0.734,0,1.465-0.023,2.191-0.07s1.457-0.098,2.191-0.152s1.469-0.105,2.203-0.152s1.469-0.07,2.204-0.07
		c0,0.188-0.063,0.34-0.188,0.457c-0.125,0.117-0.27,0.211-0.434,0.281s-0.34,0.121-0.527,0.152s-0.328,0.055-0.422,0.07
		c-0.063,0.016-0.258,0.039-0.586,0.07s-0.734,0.078-1.219,0.141s-1.023,0.125-1.617,0.188S11.128,21,10.55,21.063
		s-1.125,0.121-1.641,0.176s-0.945,0.098-1.289,0.129c-0.047,0.016-0.117,0.023-0.211,0.023c0-2.094-0.066-4.207-0.199-6.339
		C7.078,12.918,6.761,10.821,6.261,8.758z"/>
	<path fill="#E6E6E6" d="M14.886,26.922c0-0.422,0.07-0.742,0.211-0.961s0.469-0.328,0.984-0.328
		c-0.047,0.219-0.105,0.438-0.176,0.656s-0.133,0.422-0.188,0.609s-0.078,0.336-0.07,0.445s0.066,0.148,0.176,0.117
		c0.5,0.328,1.047,0.563,1.641,0.703c0.594,0.141,1.18,0.211,1.758,0.211c0.875-0.016,1.629-0.195,2.262-0.539
		s1.156-0.789,1.57-1.336s0.734-1.176,0.961-1.887s0.367-1.445,0.422-2.203s0.035-1.52-0.059-2.285s-0.242-1.469-0.445-2.109
		c-0.266,0.297-0.535,0.609-0.809,0.938s-0.566,0.621-0.879,0.879s-0.645,0.473-0.996,0.645s-0.746,0.258-1.184,0.258
		c-0.453,0-0.793-0.078-1.02-0.234s-0.379-0.371-0.457-0.645s-0.113-0.59-0.105-0.949s0.012-0.742,0.012-1.148
		c0-0.375,0.012-0.796,0.035-1.265s0.078-0.941,0.164-1.418s0.203-0.945,0.352-1.406s0.348-0.875,0.598-1.242
		s0.563-0.66,0.938-0.879s0.82-0.328,1.336-0.328c0.328,0,0.645,0.027,0.949,0.082s0.586,0.152,0.844,0.293s0.48,0.328,0.668,0.563
		s0.336,0.531,0.445,0.891c0.063,0.703,0.141,1.465,0.234,2.285s0.172,1.671,0.234,2.554s0.094,1.77,0.094,2.66
		s-0.059,1.75-0.176,2.578s-0.313,1.605-0.586,2.332s-0.656,1.367-1.148,1.922s-1.105,1-1.84,1.336s-1.617,0.52-2.648,0.551
		c-0.438,0-0.898-0.027-1.383-0.082s-0.93-0.164-1.336-0.328s-0.738-0.398-0.996-0.703S14.886,27.438,14.886,26.922z M19.387,17.758
		c0,0.172-0.008,0.367-0.023,0.586S19.355,18.781,19.387,19s0.098,0.406,0.199,0.563s0.27,0.242,0.504,0.258
		c0.375,0,0.723-0.086,1.043-0.258s0.609-0.406,0.867-0.703s0.484-0.629,0.68-0.996s0.359-0.746,0.492-1.136
		c0.133-0.391,0.234-0.77,0.305-1.137s0.105-0.691,0.105-0.973c0.047-0.297,0.051-0.594,0.012-0.891s-0.129-0.563-0.27-0.797
		s-0.328-0.426-0.563-0.574s-0.516-0.223-0.844-0.223c-0.375,0-0.703,0.105-0.984,0.316s-0.516,0.48-0.703,0.809
		s-0.336,0.699-0.445,1.113s-0.191,0.828-0.246,1.242s-0.094,0.813-0.117,1.195C19.398,17.191,19.387,17.508,19.387,17.758z"/>
</g>
<g>
</g>
<g>
</g>
<g>
</g>
<g>
</g>
<g>
</g>
<g>
</g>
</svg>