<svg class="style-svg replaced-svg svg-replaced-0" viewBox="0 0 1246.49 152.14" data-name="Layer 1"
  id="logo" xmlns="http://www.w3.org/2000/svg">
  <defs>
    <style>
      .guardtools-svg-1{fill:#fff;}.guardtools-svg-2{fill:none;stroke:#fff;stroke-miterlimit:10;stroke-width:13px;}</style>
  </defs>
  <path
    d="M196.72,108.46a23.36,23.36,0,0,0,9.47,4.28q5.58,1.26,17.32,1.26H249q19.44,0,27.27-4.45t7.83-15V69.89H233.33V85.05h26.94v.25a15.2,15.2,0,0,1,.2,2,6.29,6.29,0,0,1-3.72,6.17q-3.74,1.78-13.6,1.79H229.91q-11,0-14.71-3t-3.73-11.13V70.7q0-9.12,3.3-11.94t15-2.82h13.34q11,0,14.1,1.91T260.37,65v.2h23c0-.51.05-1.06.07-1.67s0-1.46,0-2.56a34.05,34.05,0,0,0-1.69-11.56A16,16,0,0,0,276.54,42a21.41,21.41,0,0,0-9.27-3.72q-5.89-1.11-18.28-1.11H223.41q-20.1,0-27.72,6.37t-7.63,22.48V86.51a36.25,36.25,0,0,0,2.06,13.17A20.82,20.82,0,0,0,196.72,108.46Z"
    class="guardtools-svg-1"></path>
  <path
    d="M306.07,108.72Q313.8,114,334.4,114H360q17.52,0,24.65-5.54t7.12-18.78V38.11H368.84V82.58q0,7.31-3.27,10t-12.89,2.74h-13q-11.58,0-15-2.59t-3.45-10.2V38.11H298.34V89.68Q298.34,103.43,306.07,108.72Z"
    class="guardtools-svg-1"></path>
  <path
    d="M429.45,100.61h45.68l7.25,12.49h25.13l-40.19-75H438.11l-40.94,75h25ZM452.37,56l14.55,26.54H438.11Z"
    class="guardtools-svg-1"></path>
  <path
    d="M539.08,93.91h34.14c4.1,0,6.84.55,8.24,1.66s2.09,3.14,2.09,6.1V113.1h22.91V97.74a14,14,0,0,0-3-9.27q-3-3.57-8.92-5,6.75-1.62,9.62-6.35t2.87-14.45q0-14-6.44-19.29t-24.28-5.29H516.12v75h23Zm0-37.11h36.41c2.89,0,5,.67,6.29,2s2,3.49,2,6.45c0,3.72-.62,6.3-1.84,7.73s-3.37,2.14-6.42,2.14H539.08Z"
    class="guardtools-svg-1"></path>
  <path
    d="M712.51,107.33q6.24-5.76,6.25-18.25V63.29q0-13.14-7.81-19.16t-25-6H620.21v75h72.46Q706.28,113.1,712.51,107.33ZM681.84,94.87H643.07V56.6H679q8.71,0,12.82,3.09t4.1,9.7V82.58q0,6.35-3.37,9.32T681.84,94.87Z"
    class="guardtools-svg-1"></path>
  <polygon
    points="759.53 113.1 782.4 113.1 782.4 56.49 813.77 56.49 813.77 38.11 728.16 38.11 728.16 56.49 759.53 56.49 759.53 113.1"
    class="guardtools-svg-1"></polygon>
  <path
    d="M831.44,108.77a24,24,0,0,0,9.92,4Q847.45,114,860.6,114h25.28q13,0,19.19-1.18a23.67,23.67,0,0,0,10-4,18.59,18.59,0,0,0,6.12-8.64,42.61,42.61,0,0,0,1.94-14.08V65.16a42.92,42.92,0,0,0-1.94-14A18.2,18.2,0,0,0,915,42.45a23.94,23.94,0,0,0-10-4q-6.32-1.22-19.11-1.21H860.5q-12.74,0-19,1.21a24.28,24.28,0,0,0-10,4,17.78,17.78,0,0,0-6.24,8.71q-1.92,5.49-1.92,14.9V86.51q0,8.61,1.92,13.82A17.93,17.93,0,0,0,831.44,108.77ZM846.6,70.7q0-8.61,3.85-11.69t16.24-3.07h13.1q12.13,0,16.11,3.05t4,11.3V80.92q0,8.25-4,11.3t-16.11,3h-13q-12.07,0-16.14-3t-4-11.13Z"
    class="guardtools-svg-1"></path>
  <path
    d="M946,108.77a24.06,24.06,0,0,0,9.92,4Q962,114,975.11,114h25.28q13,0,19.19-1.18a23.67,23.67,0,0,0,10-4,18.45,18.45,0,0,0,6.12-8.64,42.61,42.61,0,0,0,1.94-14.08V65.16a42.92,42.92,0,0,0-1.94-14,18.07,18.07,0,0,0-6.12-8.66,23.83,23.83,0,0,0-10-4q-6.32-1.22-19.11-1.21H975q-12.74,0-19,1.21a24.28,24.28,0,0,0-10,4,17.91,17.91,0,0,0-6.24,8.71q-1.92,5.49-1.91,14.9V86.51q0,8.61,1.91,13.82A18.07,18.07,0,0,0,946,108.77ZM961.11,70.7q0-8.61,3.85-11.69t16.24-3.07h13.1q12.13,0,16.11,3.05t4,11.3V80.92q0,8.25-4,11.3t-16.11,3h-13q-12.09,0-16.14-3t-4.06-11.13Z"
    class="guardtools-svg-1"></path>
  <polygon
    points="1124.17 94.97 1074.27 94.97 1074.27 38.11 1051.36 38.11 1051.36 113.1 1124.17 113.1 1124.17 94.97"
    class="guardtools-svg-1"></polygon>
  <path
    d="M1138.82,109.8q6.35,4.2,25.13,4.2h30.52a101,101,0,0,0,15-.83,22,22,0,0,0,8.21-2.74,17.51,17.51,0,0,0,6.52-7.3q1.93-4.29,1.94-12.09,0-13.14-5.27-18.58t-18.15-5.79l-37.67-.61q-5.13-.41-7-1.83c-1.28-1-1.91-2.51-1.91-4.66s.7-3.71,2.11-4.59,4.32-1.3,8.71-1.3h26.39q3.78,0,5.67,1.86t1.89,5.59v.3h22.05c.1-1.21.16-2.08.18-2.62s0-1,0-1.51q0-10.62-5.71-15.36t-18.71-4.73h-35q-11.93,0-17.22,1.31A18.54,18.54,0,0,0,1138,43a16.23,16.23,0,0,0-4,6.95,37.55,37.55,0,0,0-1.26,10.62q0,12.49,4.76,17.23t18.26,5.13l36,.81c4.6.33,7.6,1,9,2s2.09,2.59,2.09,4.84-.61,3.8-1.81,4.76-3.23,1.43-6.05,1.43h-28.75c-4.4,0-7.29-.49-8.66-1.49s-2.07-2.89-2.07-5.71V88.12l-22.61,0c-.1,1.48-.17,2.73-.22,3.75s-.08,1.76-.08,2.19Q1132.48,105.6,1138.82,109.8Z"
    class="guardtools-svg-1"></path>
  <path
    d="M1241.3,51c0-.11,0-.21,0-.31v-.94a2.88,2.88,0,0,0-.92-2.36,3.71,3.71,0,0,0-1.49-.61,3.42,3.42,0,0,0,1.82-.7,2.3,2.3,0,0,0,.73-1.91,2.64,2.64,0,0,0-1.4-2.51,5,5,0,0,0-2.07-.54c-.14,0-.87,0-2.16,0h-2.93V51.64h2.75V47.92h.58l.61,0a3.28,3.28,0,0,1,.93.17,1.29,1.29,0,0,1,.78.77,5.2,5.2,0,0,1,.17,1.29,8.23,8.23,0,0,0,.17,1.45h2.63l-.1-.3A1.67,1.67,0,0,1,1241.3,51Zm-3.12-5.39a2.6,2.6,0,0,1-1.5.38h-1.07V43h.67a4.51,4.51,0,0,1,1.6.22,1.2,1.2,0,0,1,.85,1.19A1.41,1.41,0,0,1,1238.18,45.65Z"
    class="guardtools-svg-1"></path>
  <path
    d="M1243.71,39.67a9.12,9.12,0,0,0-6.69-2.78,9.29,9.29,0,0,0-6.52,2.57,9,9,0,0,0-3,6.91,9.48,9.48,0,1,0,16.17-6.7ZM1242.53,52a7.77,7.77,0,0,1-11,0,7.86,7.86,0,0,1,0-11.08,7.67,7.67,0,0,1,11.09,0,7.85,7.85,0,0,1,0,11.07Z"
    class="guardtools-svg-1"></path>
  <circle r="24.18" cy="76.29" cx="76.07" class="guardtools-svg-1"></circle>
  <polygon points="89.33 95.5 62.81 95.5 47.38 141.33 104.75 141.33 89.33 95.5"
    class="guardtools-svg-1"></polygon>
  <circle r="69.57" cy="76.07" cx="76.07" class="guardtools-svg-2"></circle>
</svg>