<svg width="97" height="21" viewBox="0 0 97 21" fill="none" xmlns="http://www.w3.org/2000/svg">
<g clip-path="url(#clip0_3633_15648)">
<g clip-path="url(#clip1_3633_15648)">
<path d="M7.303 5.88131C8.01536 6.25208 8.60278 6.82022 8.99325 7.51606C9.40363 8.26536 9.61062 9.10694 9.59406 9.9588V14.1152C9.62633 15.1217 9.30821 16.1086 8.69285 16.9112C8.07544 17.6825 7.20555 18.2173 6.23258 18.4238C6.16983 18.4482 6.13941 18.4839 6.13941 18.5347V20.6824C6.14581 20.7253 6.14197 20.7691 6.12818 20.8103C6.11439 20.8515 6.09104 20.8889 6.06 20.9196C6.02896 20.9503 5.99109 20.9734 5.94942 20.987C5.90775 21.0006 5.86342 21.0044 5.82 20.9981H3.81033C3.76691 21.0044 3.72258 21.0006 3.68091 20.987C3.63924 20.9734 3.60137 20.9503 3.57033 20.9196C3.53929 20.8889 3.51594 20.8515 3.50215 20.8103C3.48836 20.7691 3.48452 20.7253 3.49092 20.6824V18.5553C3.49092 18.5046 3.4605 18.4689 3.39775 18.4426C2.42137 18.2322 1.54834 17.6953 0.926078 16.9225C0.300708 16.1219 -0.0244966 15.1318 0.0058536 14.1208V9.9588C-0.0151374 9.10692 0.190738 8.26455 0.602858 7.51606C0.995204 6.82276 1.58136 6.25586 2.2912 5.88319C3.06041 5.48672 3.91835 5.28832 4.7857 5.30633C5.66012 5.28813 6.52533 5.48575 7.303 5.88131V5.88131ZM6.94556 9.82727C6.97308 9.22226 6.76098 8.63047 6.35426 8.17748C6.1536 7.96799 5.90964 7.80367 5.63897 7.6957C5.3683 7.58773 5.07728 7.53863 4.7857 7.55177C4.4967 7.54096 4.20873 7.59175 3.94136 7.70069C3.67399 7.80963 3.43347 7.97416 3.23614 8.18312C2.83012 8.63651 2.61812 9.22802 2.64484 9.8329V14.0645C2.61783 14.67 2.82983 15.2622 3.23614 15.7161C3.43347 15.9251 3.67399 16.0896 3.94136 16.1986C4.20873 16.3075 4.4967 16.3583 4.7857 16.3475C5.07739 16.3596 5.36831 16.3095 5.63866 16.2006C5.909 16.0916 6.15242 15.9264 6.35236 15.7161C6.75937 15.2626 6.97148 14.6701 6.94366 14.0645L6.94556 9.82727Z" fill="#96FA9D"/>
<path d="M13.554 18.0386C12.8429 17.6898 12.2488 17.1457 11.8428 16.4715C11.4272 15.7648 11.2161 14.9588 11.2325 14.1415V5.77046C11.225 5.72694 11.2281 5.68229 11.2415 5.64019C11.255 5.59809 11.2784 5.55975 11.3098 5.52835C11.3412 5.49696 11.3797 5.4734 11.4221 5.45962C11.4646 5.44585 11.5097 5.44226 11.5538 5.44915H13.5635C13.6068 5.44315 13.6509 5.44719 13.6923 5.46096C13.7337 5.47474 13.7713 5.49786 13.8021 5.52849C13.833 5.55913 13.8561 5.59643 13.8698 5.63745C13.8835 5.67847 13.8873 5.72208 13.881 5.76482V14.1509C13.8723 14.4439 13.9232 14.7356 14.0307 15.0089C14.1381 15.2821 14.2999 15.5312 14.5066 15.7415C14.7132 15.9517 14.9604 16.1189 15.2336 16.233C15.5068 16.3472 15.8004 16.406 16.0969 16.406C16.3935 16.406 16.6871 16.3472 16.9603 16.233C17.2335 16.1189 17.4807 15.9517 17.6873 15.7415C17.894 15.5312 18.0558 15.2821 18.1632 15.0089C18.2707 14.7356 18.3216 14.4439 18.3129 14.1509V5.77046C18.3065 5.72754 18.3104 5.68374 18.3241 5.64255C18.3379 5.60137 18.3613 5.56394 18.3923 5.53326C18.4234 5.50259 18.4612 5.47951 18.5029 5.46588C18.5446 5.45226 18.5889 5.44846 18.6323 5.45478H20.6401C20.6835 5.44846 20.7278 5.45226 20.7695 5.46588C20.8112 5.47951 20.8491 5.50259 20.8801 5.53326C20.9111 5.56394 20.9345 5.60137 20.9483 5.64255C20.9621 5.68374 20.9659 5.72754 20.9595 5.77046V14.1378C20.9759 14.955 20.7648 15.761 20.3492 16.4678C19.9429 17.1417 19.3488 17.6857 18.638 18.0349C17.8412 18.4012 16.973 18.5911 16.0941 18.5911C15.2152 18.5911 14.347 18.4012 13.5502 18.0349L13.554 18.0386Z" fill="#96FA9D"/>
<path d="M30.7798 7.70399H25.4809C25.4656 7.70177 25.4501 7.70311 25.4354 7.7079C25.4208 7.71269 25.4075 7.7208 25.3966 7.73157C25.3857 7.74234 25.3775 7.75548 25.3727 7.76994C25.3678 7.7844 25.3664 7.79978 25.3687 7.81485V10.6541C25.3664 10.6691 25.3678 10.6845 25.3727 10.699C25.3775 10.7134 25.3857 10.7266 25.3966 10.7373C25.4075 10.7481 25.4208 10.7562 25.4354 10.761C25.4501 10.7658 25.4656 10.7671 25.4809 10.7649H29.4051C29.4486 10.7586 29.4929 10.7624 29.5346 10.776C29.5762 10.7897 29.6141 10.8127 29.6451 10.8434C29.6762 10.8741 29.6995 10.9115 29.7133 10.9527C29.7271 10.9939 29.7309 11.0377 29.7245 11.0806V12.6947C29.7309 12.7376 29.7271 12.7814 29.7133 12.8226C29.6995 12.8638 29.6762 12.9012 29.6451 12.9319C29.6141 12.9626 29.5762 12.9856 29.5346 12.9993C29.4929 13.0129 29.4486 13.0167 29.4051 13.0104H25.4809C25.4656 13.0081 25.4501 13.0095 25.4354 13.0143C25.4208 13.0191 25.4075 13.0272 25.3966 13.0379C25.3857 13.0487 25.3775 13.0619 25.3727 13.0763C25.3678 13.0908 25.3664 13.1061 25.3687 13.1212V16.0901C25.3661 16.1053 25.3672 16.1209 25.3719 16.1356C25.3766 16.1503 25.3848 16.1637 25.3957 16.1747C25.4066 16.1857 25.4201 16.194 25.4349 16.1989C25.4497 16.2038 25.4654 16.2051 25.4809 16.2028H30.7798C30.823 16.1966 30.8671 16.2004 30.9086 16.2139C30.9501 16.2274 30.9879 16.2503 31.0189 16.2808C31.0499 16.3112 31.0733 16.3484 31.0872 16.3893C31.1012 16.4303 31.1052 16.4738 31.0992 16.5166V18.1326C31.1052 18.1754 31.1012 18.2189 31.0872 18.2599C31.0733 18.3008 31.0499 18.338 31.0189 18.3684C30.9879 18.3989 30.9501 18.4218 30.9086 18.4353C30.8671 18.4489 30.823 18.4526 30.7798 18.4464H23.0377C22.9945 18.4526 22.9503 18.4489 22.9088 18.4353C22.8673 18.4218 22.8296 18.3989 22.7986 18.3684C22.7676 18.338 22.7442 18.3008 22.7302 18.2599C22.7163 18.2189 22.7122 18.1754 22.7183 18.1326V5.77047C22.7109 5.72713 22.714 5.68267 22.7273 5.64074C22.7406 5.59881 22.7639 5.5606 22.795 5.52925C22.8262 5.49789 22.8644 5.47429 22.9066 5.46036C22.9488 5.44644 22.9937 5.4426 23.0377 5.44915H30.7779C30.8213 5.44283 30.8656 5.44663 30.9073 5.46026C30.949 5.47388 30.9868 5.49696 31.0179 5.52763C31.0489 5.55831 31.0723 5.59574 31.086 5.63692C31.0998 5.67811 31.1037 5.72191 31.0973 5.76483V7.37891C31.1053 7.42235 31.1027 7.46705 31.0898 7.50931C31.0769 7.55157 31.0539 7.59019 31.0229 7.62196C30.9919 7.65372 30.9536 7.67773 30.9114 7.692C30.8691 7.70626 30.824 7.71037 30.7798 7.70399V7.70399Z" fill="#96FA9D"/>
<path d="M40.7389 7.70401H35.44C35.4247 7.7018 35.4091 7.70314 35.3945 7.70793C35.3799 7.71272 35.3666 7.72082 35.3557 7.73159C35.3448 7.74236 35.3366 7.7555 35.3317 7.76996C35.3269 7.78442 35.3255 7.7998 35.3278 7.81487V10.6541C35.3255 10.6692 35.3269 10.6845 35.3317 10.699C35.3366 10.7135 35.3448 10.7266 35.3557 10.7374C35.3666 10.7481 35.3799 10.7562 35.3945 10.761C35.4091 10.7658 35.4247 10.7672 35.44 10.7649H39.3642C39.4076 10.7586 39.452 10.7624 39.4936 10.776C39.5353 10.7897 39.5732 10.8128 39.6042 10.8434C39.6353 10.8741 39.6586 10.9115 39.6724 10.9527C39.6862 10.9939 39.69 11.0377 39.6836 11.0806V12.6947C39.69 12.7376 39.6862 12.7814 39.6724 12.8226C39.6586 12.8638 39.6353 12.9012 39.6042 12.9319C39.5732 12.9626 39.5353 12.9857 39.4936 12.9993C39.452 13.0129 39.4076 13.0167 39.3642 13.0104H35.44C35.4247 13.0082 35.4091 13.0095 35.3945 13.0143C35.3799 13.0191 35.3666 13.0272 35.3557 13.038C35.3448 13.0487 35.3366 13.0619 35.3317 13.0763C35.3269 13.0908 35.3255 13.1062 35.3278 13.1212V16.0901C35.3252 16.1053 35.3263 16.1209 35.331 16.1356C35.3357 16.1503 35.3439 16.1637 35.3548 16.1747C35.3657 16.1857 35.3792 16.194 35.394 16.1989C35.4088 16.2038 35.4245 16.2051 35.44 16.2029H40.7389C40.7821 16.1966 40.8262 16.2004 40.8677 16.2139C40.9092 16.2274 40.947 16.2503 40.978 16.2808C41.009 16.3112 41.0324 16.3484 41.0463 16.3893C41.0602 16.4303 41.0643 16.4739 41.0583 16.5166V18.1326C41.0643 18.1754 41.0602 18.219 41.0463 18.2599C41.0324 18.3009 41.009 18.338 40.978 18.3685C40.947 18.3989 40.9092 18.4218 40.8677 18.4353C40.8262 18.4489 40.7821 18.4527 40.7389 18.4464H32.9987C32.9554 18.4527 32.9113 18.4489 32.8698 18.4353C32.8283 18.4218 32.7906 18.3989 32.7596 18.3685C32.7286 18.338 32.7052 18.3009 32.6912 18.2599C32.6773 18.219 32.6732 18.1754 32.6793 18.1326V5.77049C32.6729 5.72757 32.6767 5.68377 32.6905 5.64259C32.7043 5.6014 32.7276 5.56397 32.7587 5.5333C32.7897 5.50262 32.8276 5.47955 32.8693 5.46592C32.9109 5.45229 32.9553 5.44849 32.9987 5.45482H40.7389C40.7823 5.44849 40.8266 5.45229 40.8683 5.46592C40.9099 5.47955 40.9478 5.50262 40.9789 5.5333C41.0099 5.56397 41.0332 5.6014 41.047 5.64259C41.0608 5.68377 41.0647 5.72757 41.0583 5.77049V7.38457C41.0653 7.42777 41.062 7.47202 41.0485 7.5137C41.035 7.55538 41.0118 7.59333 40.9806 7.62445C40.9495 7.65558 40.9114 7.67901 40.8694 7.69283C40.8274 7.70665 40.7826 7.71049 40.7389 7.70401Z" fill="#96FA9D"/>
<path d="M42.6212 18.1289V5.77049C42.6148 5.72757 42.6186 5.68377 42.6324 5.64259C42.6462 5.6014 42.6695 5.56397 42.7006 5.5333C42.7316 5.50262 42.7695 5.47955 42.8112 5.46592C42.8528 5.45229 42.8972 5.44849 42.9406 5.45482H44.8647C44.9409 5.45162 45.0166 5.469 45.0836 5.50508C45.1506 5.54116 45.2064 5.59459 45.245 5.65963L49.9392 13.3787C49.964 13.4275 49.9906 13.4463 50.0229 13.4332C50.0552 13.42 50.0704 13.3899 50.0704 13.3411V5.77049C50.0641 5.72775 50.0679 5.68414 50.0816 5.64312C50.0953 5.6021 50.1185 5.5648 50.1493 5.53416C50.1801 5.50353 50.2177 5.48041 50.2591 5.46663C50.3006 5.45286 50.3447 5.44882 50.3879 5.45482H52.3558C52.3992 5.44849 52.4435 5.45229 52.4852 5.46592C52.5269 5.47955 52.5648 5.50262 52.5958 5.5333C52.6268 5.56397 52.6502 5.6014 52.664 5.64259C52.6778 5.68377 52.6816 5.72757 52.6752 5.77049V18.1289C52.6813 18.1716 52.6772 18.2152 52.6632 18.2562C52.6493 18.2971 52.6259 18.3343 52.5949 18.3647C52.5639 18.3952 52.5262 18.4181 52.4847 18.4316C52.4432 18.4451 52.399 18.4489 52.3558 18.4426H50.4412C50.3636 18.4423 50.2875 18.4217 50.2207 18.3827C50.1538 18.3437 50.0987 18.2879 50.0609 18.2209L45.3533 10.4286C45.3286 10.3779 45.3001 10.3591 45.2697 10.3722C45.2392 10.3854 45.2221 10.4154 45.2221 10.4643L45.2412 18.1289C45.2472 18.1716 45.2431 18.2152 45.2292 18.2562C45.2153 18.2971 45.1919 18.3343 45.1609 18.3647C45.1299 18.3952 45.0921 18.4181 45.0506 18.4316C45.0091 18.4451 44.965 18.4489 44.9217 18.4426H42.9311C42.8886 18.4473 42.8455 18.4423 42.8053 18.4281C42.765 18.4139 42.7285 18.3907 42.6986 18.3605C42.6688 18.3302 42.6463 18.2937 42.6328 18.2535C42.6194 18.2134 42.6154 18.1707 42.6212 18.1289V18.1289Z" fill="#96FA9D"/>
<path d="M56.4264 18.0631C55.7374 17.7841 55.1436 17.3159 54.7153 16.714C54.31 16.1128 54.1015 15.403 54.1183 14.6809V14.3652C54.1119 14.3225 54.1156 14.2789 54.1293 14.238C54.143 14.197 54.1662 14.1598 54.1971 14.1293C54.228 14.0988 54.2656 14.0758 54.3071 14.0623C54.3485 14.0488 54.3926 14.045 54.4358 14.0514H56.3998C56.6109 14.0514 56.7173 14.1322 56.7173 14.2919V14.5512C56.7192 14.7985 56.7825 15.0415 56.9015 15.259C57.0205 15.4765 57.1916 15.6619 57.3999 15.7989C57.9228 16.1581 58.5509 16.3371 59.1871 16.3081C59.8468 16.3081 60.3374 16.169 60.6549 15.8909C60.8065 15.7657 60.928 15.6086 61.0106 15.4312C61.0931 15.2537 61.1346 15.0603 61.1321 14.865C61.1356 14.7264 61.111 14.5884 61.0598 14.4594C61.0085 14.3303 60.9316 14.2126 60.8336 14.1134C60.6004 13.8875 60.3271 13.706 60.0275 13.5779C59.6916 13.4238 59.1491 13.2115 58.4 12.9409C57.6681 12.705 56.9556 12.4142 56.2686 12.0709C55.6978 11.7785 55.1992 11.3653 54.8084 10.8608C54.401 10.3134 54.1933 9.64577 54.219 8.96673C54.2045 8.27574 54.4079 7.59741 54.8008 7.0257C55.2057 6.45707 55.7663 6.01445 56.4169 5.74984C57.1664 5.44381 57.9713 5.29288 58.7821 5.30638C59.6564 5.29198 60.5238 5.4624 61.326 5.80621C62.0287 6.10239 62.6343 6.58575 63.0752 7.20232C63.4977 7.81452 63.717 8.54149 63.7027 9.28241V9.47031C63.7091 9.51298 63.7053 9.55654 63.6916 9.59751C63.6779 9.63847 63.6547 9.6757 63.6238 9.7062C63.593 9.73671 63.5553 9.75964 63.5138 9.77317C63.4724 9.7867 63.4283 9.79045 63.3851 9.78411H61.4211C61.2082 9.78411 61.1017 9.7221 61.1017 9.59621V9.4083C61.1006 9.15538 61.0422 8.90592 60.9306 8.67828C60.8191 8.45065 60.6573 8.25064 60.4572 8.09298C60.0275 7.72971 59.4381 7.54807 58.689 7.54807C58.0901 7.54807 57.628 7.6702 57.3048 7.92387C57.1464 8.04162 57.0193 8.19567 56.9345 8.37277C56.8497 8.54986 56.8097 8.74467 56.8181 8.94042C56.8094 9.22493 56.9099 9.50216 57.0995 9.71646C57.3415 9.95991 57.6313 10.1518 57.9513 10.2802C58.3315 10.453 58.9203 10.6748 59.7176 10.9453C60.5896 11.266 61.2817 11.5466 61.7938 11.7872C62.3296 12.047 62.7994 12.4227 63.1684 12.8864C63.5917 13.431 63.8072 14.1056 63.7768 14.7917C63.7912 15.4952 63.5861 16.1861 63.1893 16.7703C62.7724 17.3568 62.1945 17.8131 61.5238 18.0856C59.8819 18.7085 58.0636 18.7018 56.4264 18.0669V18.0631Z" fill="#96FA9D"/>
<path d="M65.6271 18.1044V5.74608C65.6207 5.70316 65.6245 5.65936 65.6383 5.61817C65.6521 5.57699 65.6754 5.53956 65.7065 5.50888C65.7375 5.47821 65.7754 5.45513 65.8171 5.4415C65.8587 5.42788 65.9031 5.42408 65.9465 5.4304H67.9562C67.9996 5.42408 68.0439 5.42788 68.0856 5.4415C68.1273 5.45513 68.1651 5.47821 68.1962 5.50888C68.2272 5.53956 68.2506 5.57699 68.2643 5.61817C68.2781 5.65936 68.282 5.70316 68.2756 5.74608V16.0638C68.2733 16.0789 68.2747 16.0943 68.2795 16.1087C68.2844 16.1232 68.2926 16.1363 68.3035 16.1471C68.3144 16.1579 68.3277 16.166 68.3423 16.1708C68.3569 16.1755 68.3725 16.1769 68.3878 16.1747H73.7228C73.7662 16.1683 73.8105 16.1722 73.8522 16.1858C73.8939 16.1994 73.9318 16.2225 73.9628 16.2532C73.9938 16.2838 74.0172 16.3213 74.031 16.3624C74.0448 16.4036 74.0486 16.4474 74.0422 16.4904L73.5212 18.1044C73.4528 18.328 73.4148 18.4201 73.2018 18.4201H65.9484C65.9048 18.4268 65.8603 18.4232 65.8184 18.4097C65.7764 18.3963 65.7383 18.3732 65.707 18.3425C65.6758 18.3118 65.6522 18.2742 65.6383 18.2329C65.6245 18.1915 65.6206 18.1475 65.6271 18.1044V18.1044Z" fill="#96FA9D"/>
<path d="M83.5964 18.1608L83.0698 16.434C83.0669 16.4072 83.0535 16.3826 83.0326 16.3654C83.0116 16.3483 82.9847 16.3398 82.9576 16.3419H78.366C78.3388 16.3398 78.3119 16.3483 78.291 16.3654C78.27 16.3826 78.2567 16.4072 78.2538 16.434L77.729 18.1608C77.708 18.2377 77.6612 18.3052 77.5962 18.3523C77.5313 18.3994 77.4521 18.4233 77.3716 18.4201H75.1851C75.1388 18.4245 75.092 18.4173 75.0492 18.3992C75.0064 18.3812 74.9688 18.3528 74.9398 18.3168C74.9152 18.2802 74.9005 18.2381 74.8972 18.1943C74.8939 18.1505 74.902 18.1066 74.9208 18.0669L78.9135 5.6916C78.9338 5.61455 78.9801 5.54666 79.0448 5.49916C79.1095 5.45167 79.1886 5.42741 79.2691 5.43041H82.0297C82.1105 5.42732 82.1899 5.45151 82.2549 5.49898C82.3198 5.54646 82.3665 5.6144 82.3872 5.6916L86.3799 18.0669C86.3941 18.1027 86.4005 18.1411 86.3989 18.1796C86.4004 18.2125 86.3944 18.2453 86.3812 18.2756C86.368 18.3059 86.3481 18.3328 86.3229 18.3544C86.265 18.4007 86.1918 18.4241 86.1175 18.4201H83.952C83.8716 18.4236 83.7925 18.3997 83.7278 18.3525C83.6631 18.3053 83.6168 18.2377 83.5964 18.1608V18.1608ZM78.9953 14.3182H82.3187C82.3948 14.3182 82.4252 14.275 82.4138 14.1886L80.7236 8.5308C80.7103 8.48007 80.6893 8.45564 80.657 8.45564C80.6247 8.45564 80.5981 8.48007 80.5734 8.5308L78.9021 14.1886C78.8888 14.2806 78.9211 14.3182 78.9953 14.3182Z" fill="#96FA9D"/>
<path d="M95.1783 11.6932C95.1798 11.7109 95.1859 11.7279 95.1958 11.7427C95.2058 11.7575 95.2194 11.7696 95.2354 11.7778C96.4116 12.3577 96.9998 13.3599 96.9998 14.7842C96.9998 15.9843 96.5865 16.8906 95.7601 17.5031C94.9337 18.1157 93.8512 18.4195 92.5127 18.4145H87.7443C87.7009 18.4208 87.6566 18.417 87.6149 18.4034C87.5732 18.3897 87.5353 18.3667 87.5043 18.336C87.4733 18.3053 87.4499 18.2679 87.4361 18.2267C87.4223 18.1855 87.4185 18.1417 87.4249 18.0988V5.74608C87.4185 5.70316 87.4223 5.65936 87.4361 5.61817C87.4499 5.57699 87.4733 5.53956 87.5043 5.50888C87.5353 5.47821 87.5732 5.45513 87.6149 5.4415C87.6566 5.42788 87.7009 5.42408 87.7443 5.4304H92.3625C95.3285 5.4304 96.8115 6.62045 96.8115 9.00055C96.8115 10.2532 96.2861 11.1301 95.2354 11.6312C95.2202 11.6337 95.2063 11.6412 95.196 11.6524C95.1856 11.6637 95.1794 11.678 95.1783 11.6932V11.6932ZM90.0715 7.78858V10.6447C90.0692 10.66 90.0705 10.6755 90.0755 10.6902C90.0804 10.7048 90.0888 10.7181 90.0999 10.7289C90.1111 10.7397 90.1246 10.7477 90.1395 10.7524C90.1544 10.757 90.1702 10.7581 90.1855 10.7556H92.3625C92.95 10.7556 93.4082 10.6203 93.7334 10.3478C93.8949 10.2114 94.0228 10.0402 94.1072 9.84738C94.1915 9.65457 94.2302 9.44525 94.2201 9.23543C94.2305 9.02116 94.1921 8.80732 94.1079 8.60961C94.0237 8.41191 93.8957 8.23537 93.7334 8.09299C93.4082 7.81489 92.95 7.67584 92.3625 7.67584H90.1855C90.17 7.67364 90.1543 7.67504 90.1394 7.67992C90.1245 7.68481 90.111 7.69305 90.1 7.704C90.0889 7.71494 90.0806 7.72828 90.0756 7.74296C90.0707 7.75764 90.0692 7.77327 90.0715 7.78858V7.78858ZM93.8645 15.72C94.178 15.3985 94.3531 14.9694 94.3531 14.523C94.3531 14.0766 94.178 13.6475 93.8645 13.3261C93.5394 13.0367 93.0831 12.8901 92.4937 12.8901H90.1855C90.1702 12.888 90.1546 12.8894 90.1399 12.8942C90.1252 12.899 90.1119 12.907 90.1008 12.9177C90.0898 12.9285 90.0814 12.9415 90.0763 12.956C90.0712 12.9704 90.0696 12.9858 90.0715 13.001V16.045C90.0696 16.0602 90.0712 16.0756 90.0763 16.09C90.0814 16.1045 90.0898 16.1176 90.1008 16.1283C90.1119 16.139 90.1252 16.1471 90.1399 16.1519C90.1546 16.1566 90.1702 16.158 90.1855 16.1559H92.5127C93.0029 16.185 93.486 16.0292 93.8645 15.72V15.72Z" fill="#96FA9D"/>
<path d="M7.25704 0.246152V1.37357C7.25704 1.43885 7.2308 1.50146 7.18409 1.54762C7.13738 1.59379 7.07403 1.61972 7.00797 1.61972H5.8672C5.80114 1.61972 5.73779 1.59379 5.69108 1.54762C5.64437 1.50146 5.61813 1.43885 5.61813 1.37357V0.246152C5.61813 0.180868 5.59188 0.11826 5.54517 0.0720978C5.49847 0.0259352 5.43511 1.02266e-10 5.36906 1.02271e-10H4.21497C4.14892 1.02271e-10 4.08557 0.0259352 4.03886 0.0720978C3.99215 0.11826 3.96591 0.180868 3.96591 0.246152V1.37357C3.96591 1.43885 3.93966 1.50146 3.89295 1.54762C3.84625 1.59379 3.78289 1.61972 3.71684 1.61972H2.57606C2.50983 1.61972 2.44628 1.59385 2.39927 1.54774C2.35226 1.50163 2.32559 1.43902 2.32509 1.37357V0.246152C2.32516 0.182776 2.30049 0.121817 2.25622 0.0759656C2.21195 0.0301139 2.15149 0.00290271 2.08743 1.02271e-10H1.12158C1.05534 -1.8783e-06 0.991794 0.0258709 0.944782 0.0719802C0.89777 0.11809 0.871107 0.180696 0.870605 0.246152V3.00644C0.871107 3.0719 0.89777 3.1345 0.944782 3.18061C0.991794 3.22672 1.05534 3.2526 1.12158 3.25259H8.47196C8.53802 3.25259 8.60137 3.22666 8.64808 3.1805C8.69479 3.13434 8.72103 3.07173 8.72103 3.00644V0.246152C8.72103 0.180868 8.69479 0.11826 8.64808 0.0720978C8.60137 0.0259352 8.53802 1.02266e-10 8.47196 1.02271e-10H7.50421C7.43848 0.000495874 7.37561 0.0266483 7.32932 0.0727572C7.28302 0.118866 7.25704 0.181193 7.25704 0.246152V0.246152Z" fill="#96FA9D"/>
</g>
</g>
<defs>
<clipPath id="clip0_3633_15648">
<rect width="97" height="21" fill="white"/>
</clipPath>
<clipPath id="clip1_3633_15648">
<rect width="97" height="21" fill="white"/>
</clipPath>
</defs>
</svg>
