<?xml version="1.0" encoding="UTF-8" standalone="no"?>
<svg width="100%" height="100%" viewBox="0 0 2009 217" version="1.1"
    xmlns="http://www.w3.org/2000/svg" xmlns:xlink="http://www.w3.org/1999/xlink"
    xml:space="preserve"
    style="fill-rule:evenodd;clip-rule:evenodd;stroke-linejoin:round;stroke-miterlimit:1.41421;">
    <g transform="matrix(4.16667,0,0,4.16667,0,0)">
        <path d="M61.75,1.53L1.518,1.53L1.518,13.165L26.936,13.165L0,41.897L0,50.888L64.374,50.888L64.374,39.251L35.342,39.251L61.75,10.511L61.75,1.53Z" style="fill-rule:nonzero;"/>
        <path d="M114.813,40.091C109.055,40.091 103.997,36.004 103.997,26.365C103.997,17.179 109.056,12.512 114.813,12.512C120.568,12.512 125.626,16.924 125.626,26.365C125.626,35.278 120.792,40.091 114.952,40.091L114.813,40.091ZM155.045,26.229C155.045,7.862 137.764,0.416 114.813,0.416C91.859,0.416 74.578,7.862 74.578,26.229C74.578,40.39 86.023,52 114.813,52C141.992,52 155.045,41.331 155.045,26.323L155.045,26.229Z"/>
        <path d="M202.042,40.091C196.284,40.091 191.227,36.004 191.227,26.365C191.227,17.179 196.284,12.512 202.042,12.512C207.797,12.512 212.855,16.924 212.855,26.365C212.855,35.278 208.021,40.091 202.181,40.091L202.042,40.091ZM242.274,26.229C242.274,7.862 224.993,0.416 202.042,0.416C179.088,0.416 161.808,7.862 161.808,26.229C161.808,40.39 173.252,52 202.042,52C229.221,52 242.274,41.331 242.274,26.323L242.274,26.229Z"/>
        <path d="M369.031,50.888L369.031,19.052C369.031,11.461 366.77,7.203 362.889,4.347C359.335,1.719 353.732,0.416 346.892,0.416C341.892,0.416 337.691,1.091 333.94,2.162C329.891,3.252 326.674,4.842 324.045,6.216L323.51,6.216C321.832,4.562 319.96,3.33 317.782,2.403C314.696,1.108 310.729,0.416 305.692,0.416C301.113,0.416 296.535,1.054 292.821,1.971C289.162,2.904 285.793,4.179 282.767,5.666L282.073,5.666L282.245,1.53L253.559,1.53L253.559,50.888L282.245,50.888L282.245,19.499C283.557,18.355 285.033,17.589 286.553,16.825C288.347,16.049 289.935,15.733 291.576,15.733C293.136,15.733 294.299,16.233 295.211,17.168C296.459,18.573 296.95,21.46 296.95,25.594L296.95,50.888L325.639,50.888L325.639,19.522C326.969,18.352 328.437,17.576 329.952,16.836C331.668,16.115 333.333,15.733 334.899,15.733C336.52,15.733 337.708,16.205 338.639,17.172C339.826,18.555 340.343,21.514 340.343,25.609L340.343,50.888L369.031,50.888Z" style="fill-rule:nonzero;"/>
        <path d="M423.608,37.863C420.353,39.009 416.845,39.619 413.66,39.619C410.212,39.619 408.032,38.136 408.032,36.101C408.032,33.012 412.652,30.374 423.608,29.528L423.608,37.863ZM454.673,50.888L454.673,50.124C452.707,49.672 452.295,47.231 452.295,43.688L452.295,19.633C452.295,4.134 438.01,0.416 417.834,0.416C392.998,0.416 384.786,8.391 382.4,15.569L410.405,16.433C411.519,14.115 413.281,11.488 417.302,11.488C422.044,11.488 423.582,14.379 423.582,17.601L423.582,19.139C388.888,22.226 378.618,28.533 378.618,37.747C378.618,46.255 387.561,52 405.729,52C414.899,52 420.865,50.089 424.159,48.863L424.66,48.863C424.953,49.629 425.564,50.34 426.133,50.888L454.673,50.888Z"/>
        <rect x="467.764" y="39.959" width="14.126" height="10.929" style="fill-rule:nonzero;"/>
    </g>
</svg>